<?xml version="1.0" encoding="UTF-8"?>
<svg width="454px" height="180px" viewBox="0 0 454 180" version="1.1" xmlns="http://www.w3.org/2000/svg" xmlns:xlink="http://www.w3.org/1999/xlink">
    <!-- Generator: Sketch 55.2 (78181) - https://sketchapp.com -->
    <title>Logo_Temp[2]</title>
    <desc>Created with Sketch.</desc>
    <g id="Logo_Temp[2]" stroke="none" stroke-width="1" fill="none" fill-rule="evenodd">
        <path d="M349.45,71.845 L338.75,71.845 L332.24,91.751 L329.87,99.912 L329.76,99.912 L327.439,91.696 L320.88,71.845 L309.85,71.845 L309.85,108.239 L316.75,108.239 L316.75,89.27 L316.36,78.628 L316.47,78.628 L326.51,108.239 L332.74,108.239 L342.83,78.628 L342.939,78.628 L342.61,89.27 L342.61,108.239 L349.45,108.239 L349.45,71.845 Z M281.46,93.736 L284.93,83.37 L286.47,77.966 L286.58,77.966 L288.24,83.48 L291.71,93.736 L281.46,93.736 Z M296.56,108.239 L304.45,108.239 L291.16,71.845 L282.06,71.845 L268.773,108.239 L276.548,108.239 L279.526,99.361 L293.59,99.361 L296.56,108.239 Z M255.76,71.845 L255.76,86.788 L239.713,86.788 L239.713,71.845 L232.104,71.845 L232.104,108.239 L239.713,108.239 L239.713,92.909 L255.76,92.909 L255.76,108.239 L263.369,108.239 L263.369,71.845 L255.76,71.845 Z M206.574,88.994 L206.574,94.619 L217.216,94.619 L217.216,95.446 C217.216,100.298 213.411,102.669 208.503,102.669 C201.776,102.669 198.302,98.312 198.302,90.042 C198.302,81.936 202.107,77.525 208.338,77.525 C212.363,77.525 215.451,79.399 216.609,83.259 L223.612,80.227 C220.745,74.051 216.003,71.294 208.117,71.294 C197.31,71.294 190.417,78.407 190.417,90.097 C190.417,101.953 197.31,108.79 207.29,108.79 C212.419,108.79 215.948,106.97 218.043,103.882 L218.208,108.239 L223.778,108.239 L223.778,88.994 L206.574,88.994 Z M182.752,71.845 L175.915,71.845 L175.915,92.909 L176.135,99.361 L176.025,99.361 L172.882,93.185 L160.144,71.845 L151.487,71.845 L151.487,108.239 L158.324,108.239 L158.324,87.174 L158.104,80.723 L158.159,80.723 L161.302,86.844 L174.04,108.239 L182.752,108.239 L182.752,71.845 Z M134.393,108.239 L142.003,108.239 L142.003,71.845 L134.393,71.845 L134.393,108.239 Z M108.862,102.118 L108.862,71.845 L101.253,71.845 L101.253,108.239 L128.052,108.239 L128.052,102.118 L108.862,102.118 Z M75.722,102.118 L75.722,71.845 L68.113,71.845 L68.113,108.239 L94.912,108.239 L94.912,102.118 L75.722,102.118 Z M51.019,108.239 L58.628,108.239 L58.628,71.845 L51.019,71.845 L51.019,108.239 Z M25.489,88.994 L25.489,94.619 L36.131,94.619 L36.131,95.446 C36.131,100.298 32.326,102.669 27.419,102.669 C20.691,102.669 17.217,98.312 17.217,90.042 C17.217,81.936 21.022,77.525 27.253,77.525 C31.279,77.525 34.366,79.399 35.524,83.259 L42.527,80.227 C39.66,74.051 34.918,71.294 27.033,71.294 C16.225,71.294 9.332,78.407 9.332,90.097 C9.332,101.953 16.225,108.79 26.206,108.79 C31.334,108.79 34.863,106.97 36.958,103.882 L37.124,108.239 L42.693,108.239 L42.693,88.994 L25.489,88.994 L25.489,88.994 Z" id="Fill-4" fill="#010000"></path>
        <path d="M422.79,161.929 L416.72,161.929 L416.72,137.667 L422.79,137.667 C429.74,137.667 433.21,141.968 433.21,149.798 C433.21,157.628 429.74,161.929 422.79,161.929 Z M423.17,131.601 L409.11,131.601 L409.11,167.995 L423.17,167.995 C434.59,167.995 441.1,161.433 441.1,149.798 C441.1,138.163 434.59,131.601 423.17,131.601 Z M379.12,137.667 L386.67,137.667 C391.08,137.667 393.12,139.321 393.12,142.96 C393.12,146.599 391.08,148.254 386.67,148.254 L379.12,148.254 L379.12,137.667 Z M394.5,167.995 L403.05,167.995 L393.45,153.216 C398.2,151.728 400.9,148.088 400.9,142.85 C400.9,135.681 395.939,131.601 387.66,131.601 L371.62,131.601 L371.62,167.995 L379.12,167.995 L379.12,154.044 L385.95,154.044 L394.5,167.995 Z M343.22,153.492 L346.689,143.126 L348.24,137.722 L348.35,137.722 L350,143.236 L353.479,153.492 L343.22,153.492 Z M358.33,167.995 L366.21,167.995 L352.92,131.601 L343.83,131.601 L330.54,167.995 L338.31,167.995 L341.29,159.117 L355.35,159.117 L358.33,167.995 Z M309.09,161.874 L309.09,131.601 L301.48,131.601 L301.48,167.995 L328.28,167.995 L328.28,161.874 L309.09,161.874 Z M275.947,161.874 L275.947,131.601 L268.338,131.601 L268.338,167.995 L295.14,167.995 L295.14,161.874 L275.947,161.874 Z M243.193,137.281 C249.259,137.281 252.788,141.692 252.788,149.798 C252.788,157.904 249.259,162.315 243.193,162.315 C237.072,162.315 233.543,157.904 233.543,149.798 C233.543,141.692 237.072,137.281 243.193,137.281 Z M243.193,131.049 C232.385,131.049 225.658,138.107 225.658,149.798 C225.658,161.488 232.385,168.546 243.193,168.546 C254.001,168.546 260.673,161.488 260.673,149.798 C260.673,138.107 254.001,131.049 243.193,131.049 Z M205.972,148.86 L199.466,148.86 L199.466,137.667 L205.972,137.667 C210.715,137.667 212.81,139.541 212.81,143.236 C212.81,146.93 210.715,148.86 205.972,148.86 Z M207.13,131.601 L191.856,131.601 L191.856,167.995 L199.466,167.995 L199.466,154.76 L207.13,154.76 C215.567,154.76 220.53,150.515 220.53,143.291 C220.53,135.847 215.567,131.601 207.13,131.601 L207.13,131.601 Z" id="Fill-5" fill="#010000"></path>
        <path d="M351.1,42.124 L351.1,32.86 L366.6,32.86 L366.6,27.015 L351.1,27.015 L351.1,17.971 L370.79,17.971 L370.79,11.851 L343.5,11.851 L343.5,48.244 L371.56,48.244 L371.56,42.124 L351.1,42.124 Z M336.99,38.208 L329.99,36.113 C328.83,40.469 325.96,42.565 321.6,42.565 C315.479,42.565 311.9,38.098 311.9,30.047 C311.9,21.942 315.7,17.53 321.77,17.53 C325.96,17.53 328.39,19.24 329.6,23.651 L336.49,20.729 C334.45,14.387 328.88,11.299 321.439,11.299 C310.8,11.299 304.01,18.357 304.01,30.047 C304.01,41.738 310.74,48.796 321.55,48.796 C328.939,48.796 334.78,45.322 336.99,38.208 Z M296.96,11.851 L289.29,11.851 L289.29,33.577 C289.29,39.697 286.75,42.565 281.41,42.565 C276.057,42.565 273.466,39.697 273.466,33.577 L273.466,11.851 L265.856,11.851 L265.856,33.907 C265.856,43.833 271.26,48.796 281.41,48.796 C291.55,48.796 296.96,43.833 296.96,33.907 L296.96,11.851 Z M236.411,17.916 L243.965,17.916 C248.376,17.916 250.417,19.571 250.417,23.21 C250.417,26.849 248.376,28.504 243.965,28.504 L236.411,28.504 L236.411,17.916 Z M251.795,48.244 L260.342,48.244 L250.747,33.466 C255.49,31.977 258.192,28.338 258.192,23.1 C258.192,15.931 253.229,11.851 244.958,11.851 L228.911,11.851 L228.911,48.244 L236.411,48.244 L236.411,34.293 L243.248,34.293 L251.795,48.244 Z M199.245,42.51 L199.245,32.97 L207.682,32.97 C211.762,32.97 213.747,34.679 213.747,37.712 C213.747,40.8 211.762,42.51 207.682,42.51 L199.245,42.51 Z M199.245,27.125 L199.245,17.751 L206.744,17.751 C210.825,17.751 212.81,19.295 212.81,22.438 C212.81,25.581 210.825,27.125 206.744,27.125 L199.245,27.125 Z M191.856,48.244 L208.344,48.244 C217.001,48.244 221.633,44.55 221.633,38.264 C221.633,34.018 218.82,30.599 213.747,29.882 L213.747,29.827 C218.324,29.055 220.695,25.691 220.695,21.776 C220.695,15.49 216.615,11.851 207.792,11.851 L191.856,11.851 L191.856,48.244 L191.856,48.244 Z" id="Fill-6" fill="#010000"></path>
    </g>
</svg>