<?xml version="1.0" encoding="UTF-8"?>
<svg width="468px" height="180px" viewBox="0 0 468 180" version="1.1" xmlns="http://www.w3.org/2000/svg" xmlns:xlink="http://www.w3.org/1999/xlink">
    <!-- Generator: Sketch 55.2 (78181) - https://sketchapp.com -->
    <title>BGP_Logo</title>
    <desc>Created with Sketch.</desc>
    <g id="BGP_Logo" stroke="none" stroke-width="1" fill="none" fill-rule="evenodd">
        <path d="M456.336,149.613 C456.336,138.051 449.737,131.615 438.447,131.615 L425.74,131.615 L425.74,167.612 L438.447,167.612 C449.737,167.612 456.336,161.175 456.336,149.613 L456.336,149.613 Z M450.228,149.613 C450.228,157.904 446.028,162.649 438.447,162.649 L431.575,162.649 L431.575,136.578 L438.447,136.578 C446.028,136.578 450.228,141.323 450.228,149.613 L450.228,149.613 Z M416.85,167.612 L407.086,152.558 C411.886,151.196 414.722,147.595 414.722,142.414 C414.722,135.652 409.869,131.615 402.124,131.615 L387.453,131.615 L387.453,167.612 L393.235,167.612 L393.235,153.213 L400.979,153.213 L410.142,167.612 L416.85,167.612 Z M401.632,148.36 L393.235,148.36 L393.235,136.578 L401.632,136.578 C406.378,136.578 408.669,138.488 408.669,142.468 C408.669,146.45 406.378,148.36 401.632,148.36 L401.632,148.36 Z M359.475,47.625 L386.308,47.625 L386.308,42.607 L365.31,42.607 L365.31,31.918 L381.127,31.918 L381.127,27.009 L365.31,27.009 L365.31,16.647 L385.544,16.647 L385.544,11.629 L359.475,11.629 L359.475,47.625 Z M360.456,71.622 L351.948,71.622 L344.749,92.456 L342.186,101.019 L342.077,101.019 L339.568,92.456 L332.314,71.622 L323.643,71.622 L323.643,107.618 L329.042,107.618 L329.042,86.784 L328.606,76.858 L328.66,76.858 L339.623,107.618 L344.477,107.618 L355.439,76.858 L355.493,76.858 L355.112,86.784 L355.112,107.618 L360.456,107.618 L360.456,71.622 Z M324.625,29.627 C324.625,21.064 329.043,16.156 335.751,16.156 C340.222,16.156 342.895,18.119 344.314,22.373 L349.822,19.919 C347.639,14.083 342.568,11.084 335.423,11.084 C325.116,11.084 318.516,18.174 318.516,29.627 C318.516,41.08 325.061,48.17 335.478,48.17 C342.513,48.17 348.13,44.68 350.367,38.081 L344.803,36.226 C343.441,40.808 340.114,43.098 335.533,43.098 C328.714,43.098 324.625,38.135 324.625,29.627 L324.625,29.627 Z M309.462,107.618 L315.626,107.618 L302.045,71.622 L295.065,71.622 L281.484,107.618 L287.484,107.618 L290.919,98.183 L306.081,98.183 L309.462,107.618 Z M304.336,93.438 L292.61,93.438 L296.864,81.766 L298.391,76.694 L298.554,76.694 L300.191,81.875 L304.336,93.438 Z M308.7,33.827 L308.7,11.629 L302.81,11.629 L302.81,33.118 C302.81,39.935 300.028,43.098 293.975,43.098 C287.92,43.098 285.138,39.935 285.138,33.118 L285.138,11.629 L279.249,11.629 L279.249,33.827 C279.249,43.371 284.429,48.17 293.975,48.17 C303.519,48.17 308.7,43.371 308.7,33.827 L308.7,33.827 Z M267.577,107.618 L273.466,107.618 L273.466,71.622 L267.577,71.622 L267.577,86.893 L249.797,86.893 L249.797,71.622 L243.961,71.622 L243.961,107.618 L249.797,107.618 L249.797,91.911 L267.577,91.911 L267.577,107.618 Z M270.85,47.625 L261.087,32.572 C265.886,31.209 268.722,27.609 268.722,22.428 C268.722,15.665 263.869,11.629 256.125,11.629 L241.454,11.629 L241.454,47.625 L247.235,47.625 L247.235,33.227 L254.979,33.227 L264.142,47.625 L270.85,47.625 Z M255.633,28.373 L247.235,28.373 L247.235,16.592 L255.633,16.592 C260.378,16.592 262.669,18.501 262.669,22.482 C262.669,26.464 260.378,28.373 255.633,28.373 L255.633,28.373 Z M253.615,131.071 C243.198,131.071 236.654,138.16 236.654,149.613 C236.654,161.067 243.198,168.156 253.615,168.156 C264.086,168.156 270.63,161.067 270.63,149.613 C270.63,138.16 264.086,131.071 253.615,131.071 L253.615,131.071 Z M253.615,136.142 C260.433,136.142 264.523,141.05 264.523,149.613 C264.523,158.176 260.433,163.084 253.615,163.084 C246.852,163.084 242.761,158.176 242.761,149.613 C242.761,141.05 246.852,136.142 253.615,136.142 L253.615,136.142 Z M228.69,107.618 L233,107.618 L233,89.02 L216.801,89.02 L216.801,93.82 L227.818,93.82 L227.818,94.856 C227.818,100.419 223.619,103.146 218.165,103.146 C210.802,103.146 206.93,98.237 206.93,89.62 C206.93,81.057 211.293,76.149 218.056,76.149 C222.583,76.149 226.018,78.167 227.437,82.148 L232.781,79.585 C230,73.749 225.419,71.077 217.947,71.077 C207.584,71.077 200.821,78.167 200.821,89.62 C200.821,101.182 207.42,108.163 217.51,108.163 C222.801,108.163 226.455,106.254 228.473,103.037 L228.69,107.618 Z M223.947,29.409 L223.947,29.354 C228.147,28.591 230.383,25.264 230.383,21.501 C230.383,15.338 226.511,11.629 217.893,11.629 L203.712,11.629 L203.712,47.625 L218.112,47.625 C226.674,47.625 231.31,43.807 231.31,37.644 C231.31,33.608 228.583,30.172 223.947,29.409 L223.947,29.409 Z M217.457,27.118 L209.44,27.118 L209.44,16.538 L217.457,16.538 C222.038,16.538 224.329,18.283 224.329,21.828 C224.329,25.373 222.038,27.118 217.457,27.118 L217.457,27.118 Z M225.256,37.372 C225.256,40.808 222.966,42.771 218.384,42.771 L209.44,42.771 L209.44,31.972 L218.384,31.972 C222.966,31.972 225.256,33.936 225.256,37.372 L225.256,37.372 Z M183.642,107.618 L190.569,107.618 L190.569,71.622 L185.169,71.622 L185.169,94.856 L185.387,100.964 L185.333,100.964 L181.788,94.256 L167.935,71.622 L161.063,71.622 L161.063,107.618 L166.408,107.618 L166.408,84.384 L166.19,78.276 L166.244,78.276 L169.735,84.93 L183.642,107.618 Z M142.902,107.618 L148.738,107.618 L148.738,71.622 L142.902,71.622 L142.902,107.618 Z M108.597,107.618 L134.285,107.618 L134.285,102.6 L114.432,102.6 L114.432,71.622 L108.597,71.622 L108.597,107.618 Z M74.292,107.618 L99.98,107.618 L99.98,102.6 L80.127,102.6 L80.127,71.622 L74.292,71.622 L74.292,107.618 Z M56.131,107.618 L61.967,107.618 L61.967,71.622 L56.131,71.622 L56.131,107.618 Z M40.86,107.618 L45.167,107.618 L45.167,89.02 L28.97,89.02 L28.97,93.82 L39.987,93.82 L39.987,94.856 C39.987,100.419 35.788,103.146 30.334,103.146 C22.971,103.146 19.099,98.237 19.099,89.62 C19.099,81.057 23.462,76.149 30.225,76.149 C34.751,76.149 38.187,78.167 39.605,82.148 L44.95,79.585 C42.169,73.749 37.587,71.077 30.115,71.077 C19.753,71.077 12.99,78.167 12.99,89.62 C12.99,101.182 19.59,108.163 29.679,108.163 C34.969,108.163 38.624,106.254 40.642,103.037 L40.86,107.618 Z M216.691,131.615 L202.839,131.615 L202.839,167.612 L208.675,167.612 L208.675,154.031 L216.691,154.031 C224.437,154.031 229.345,149.831 229.345,142.85 C229.345,135.816 224.437,131.615 216.691,131.615 L216.691,131.615 Z M215.765,136.578 C220.946,136.578 223.292,138.76 223.292,142.85 C223.292,146.942 220.946,149.069 215.765,149.069 L208.675,149.069 L208.675,136.578 L215.765,136.578 Z M286.775,131.615 L280.939,131.615 L280.939,167.612 L306.627,167.612 L306.627,162.593 L286.775,162.593 L286.775,131.615 Z M321.08,131.615 L315.244,131.615 L315.244,167.612 L340.931,167.612 L340.931,162.593 L321.08,162.593 L321.08,131.615 Z M358.875,131.615 L345.294,167.612 L351.294,167.612 L354.73,158.176 L369.892,158.176 L373.274,167.612 L379.436,167.612 L365.856,131.615 L358.875,131.615 Z M356.42,153.431 L360.674,141.759 L362.202,136.687 L362.366,136.687 L364.002,141.868 L368.147,153.431 L356.42,153.431 L356.42,153.431 Z" id="Fill-4" fill="#000105"></path>
    </g>
</svg>